<?xml version="1.0" standalone="no"?>
<!DOCTYPE svg PUBLIC "-//W3C//DTD SVG 20010904//EN"
 "http://www.w3.org/TR/2001/REC-SVG-20010904/DTD/svg10.dtd">
<svg version="1.0" xmlns="http://www.w3.org/2000/svg"
 width="4449.000000pt" height="1137.000000pt" viewBox="0 0 4449.000000 1137.000000"
 preserveAspectRatio="xMidYMid meet">
<metadata>
Created by potrace 1.16, written by Peter Selinger 2001-2019
</metadata>
<g transform="translate(0.000000,1137.000000) scale(0.100000,-0.100000)"
fill="#000000" stroke="none">
<path d="M35805 11355 c-174 -28 -336 -116 -480 -262 -326 -329 -365 -852 -93
-1240 114 -163 300 -300 498 -366 188 -63 453 -57 643 15 210 80 394 253 503
473 78 157 107 276 107 435 0 69 -5 154 -12 190 -16 84 -72 225 -125 314 -46
78 -176 220 -252 276 -198 147 -506 211 -789 165z"/>
<path d="M4090 10679 c-441 -6 -541 -13 -850 -61 -275 -42 -457 -81 -612 -132
-119 -38 -313 -112 -357 -136 -9 -5 -93 -47 -186 -94 -182 -89 -196 -97 -320
-170 -380 -226 -775 -601 -1071 -1021 -260 -369 -468 -819 -553 -1200 -113
-508 -115 -534 -117 -1810 -1 -561 -5 -1474 -9 -2030 -10 -1191 3 -1723 46
-2025 14 -96 74 -325 106 -404 64 -158 170 -359 252 -476 113 -163 277 -347
384 -432 63 -49 80 -50 72 -3 -12 79 -15 105 -25 210 -35 360 -48 757 -30 920
26 239 57 395 106 530 14 39 30 86 35 106 24 101 168 377 291 558 143 211 409
461 641 602 l89 53 -3 838 c-2 508 1 842 7 848 5 5 23 12 39 16 17 4 799 9
1738 10 971 1 1713 6 1718 11 9 9 16 1780 7 1788 -3 3 -789 5 -1747 5 -1197 0
-1749 4 -1762 11 -17 9 -19 17 -14 57 16 113 68 347 96 428 30 89 112 254 150
303 11 14 51 67 88 116 151 199 332 346 592 483 212 111 382 165 682 218 140
24 152 25 1022 35 484 6 883 14 887 18 4 4 9 415 10 915 1 773 -1 909 -13 917
-14 10 -631 9 -1389 -2z"/>
<path d="M27481 10591 l-21 -21 2 -3468 c1 -1907 3 -3556 5 -3664 l5 -197 30
-10 c41 -15 2388 -15 2618 -1 398 25 649 68 1020 175 241 70 323 100 509 191
190 92 304 156 441 248 353 236 626 481 844 756 226 284 363 521 498 860 122
305 176 524 225 915 25 198 25 767 0 975 -61 514 -91 663 -196 965 -61 174
-93 251 -174 412 -66 132 -88 169 -213 359 -154 233 -489 584 -711 745 -60 43
-126 91 -149 107 -201 147 -603 356 -854 443 -96 34 -401 110 -560 140 -437
83 -402 81 -1942 86 l-1357 4 -20 -20z m2617 -2016 c212 -32 400 -86 552 -157
47 -22 94 -44 105 -49 92 -41 259 -173 377 -297 267 -282 419 -787 380 -1270
-20 -254 -64 -448 -143 -638 -73 -176 -223 -390 -369 -527 -70 -66 -256 -207
-273 -207 -3 0 -38 -18 -77 -41 -129 -73 -276 -123 -453 -153 -220 -39 -686
-62 -702 -36 -4 6 -6 768 -6 1693 1 1586 2 1683 19 1696 23 18 446 9 590 -14z"/>
<path d="M41025 9320 c-459 -41 -866 -164 -1267 -384 -254 -139 -474 -304
-694 -522 -252 -249 -469 -555 -655 -924 -218 -434 -320 -1068 -258 -1605 37
-320 153 -713 287 -975 69 -134 169 -309 192 -335 9 -11 36 -48 58 -81 58 -86
212 -273 307 -373 173 -181 418 -376 638 -509 65 -40 120 -72 122 -72 2 0 31
-16 63 -35 56 -33 282 -132 382 -168 88 -32 306 -96 395 -116 361 -81 845 -97
1258 -41 165 22 154 20 332 67 241 63 511 164 655 245 348 195 540 339 770
574 129 132 234 254 276 319 10 17 47 70 82 118 82 114 108 159 204 350 206
409 318 887 318 1357 0 116 -22 438 -36 520 -31 183 -89 412 -146 570 -44 123
-158 360 -228 475 -46 75 -171 254 -193 277 -7 7 -27 33 -44 58 -62 90 -286
326 -413 434 -239 203 -434 333 -675 451 -347 169 -650 264 -985 310 -137 18
-599 28 -745 15z m587 -1799 c383 -80 681 -304 901 -676 68 -116 136 -306 162
-454 42 -234 -8 -532 -126 -748 -55 -101 -162 -251 -240 -336 -64 -70 -196
-168 -311 -231 -212 -117 -565 -200 -768 -180 -394 37 -741 219 -988 520 -166
203 -264 500 -264 799 0 328 94 584 317 865 199 250 532 423 895 464 85 10
329 -4 422 -23z"/>
<path d="M21950 9203 l-625 -3 -15 -23 c-12 -19 -14 -132 -11 -792 2 -423 5
-774 8 -778 3 -5 341 -7 753 -6 411 1 752 -1 759 -5 8 -5 11 -561 11 -2180 l0
-2174 29 -12 c22 -9 223 -11 836 -8 l807 3 18 22 c16 20 18 60 24 445 3 233 9
1204 12 2158 3 954 8 1738 11 1743 2 4 349 7 771 7 422 0 777 3 788 6 18 5 22
15 28 72 3 37 7 387 8 777 1 546 -1 715 -10 733 l-13 22 -1782 -2 c-980 -2
-2063 -4 -2407 -5z"/>
<path d="M14815 9192 c-208 -1 -383 -6 -387 -10 -13 -13 -19 -1492 -18 -4796
l0 -1159 298 7 c163 4 536 9 827 12 363 3 529 7 527 15 -1 5 -2 407 -2 892 0
778 2 883 15 897 13 12 55 15 256 17 l240 3 25 -28 c13 -15 34 -45 46 -67 11
-22 33 -58 48 -80 15 -22 38 -60 52 -85 14 -25 53 -88 87 -140 34 -52 64 -102
68 -110 4 -8 20 -34 37 -57 17 -24 49 -72 71 -109 22 -36 49 -78 61 -92 11
-15 81 -119 155 -232 73 -113 151 -227 171 -255 21 -27 38 -54 38 -58 0 -4 29
-51 64 -105 94 -143 156 -242 156 -247 0 -10 74 -120 99 -147 l25 -28 953 0
c524 0 953 3 953 6 0 6 -175 265 -349 517 -44 65 -81 122 -81 127 0 4 -7 13
-15 20 -9 7 -98 137 -199 289 -100 152 -209 316 -242 365 -32 48 -65 98 -72
110 -31 51 -99 154 -273 413 -103 153 -192 288 -198 301 -19 36 -16 39 159
164 106 76 286 262 383 395 76 105 162 263 203 373 9 25 24 68 35 96 10 28 22
75 28 105 5 30 16 80 25 111 38 137 55 622 28 793 -12 76 -18 109 -43 228 -11
55 -81 272 -104 322 -8 17 -26 59 -40 95 -59 143 -197 353 -317 482 -52 56
-245 221 -308 264 -185 126 -615 302 -840 344 -47 9 -110 16 -330 38 -52 5
-1759 8 -2315 4z m1401 -1442 c5 -5 108 -10 234 -11 404 -3 627 -37 732 -110
14 -11 30 -19 36 -19 12 0 82 -70 121 -119 89 -115 125 -228 124 -391 -1 -138
-20 -210 -88 -335 -76 -141 -201 -235 -366 -276 -108 -27 -415 -49 -682 -49
l-218 0 -35 34 -35 34 7 129 c11 197 12 554 3 698 -4 72 -9 178 -10 238 -2 99
-1 109 20 131 14 14 38 26 64 29 23 3 43 11 45 16 5 14 35 14 48 1z"/>
<path d="M36769 9156 c-7 -6 -756 -16 -1221 -16 l-448 0 0 -2955 0 -2955 23
-5 c36 -9 1755 -1 1764 8 4 5 8 1336 8 2958 0 2611 -2 2951 -15 2959 -14 9
-102 14 -111 6z"/>
<path d="M5005 4170 c-194 -7 -231 -10 -435 -31 -395 -42 -833 -167 -1170
-334 -674 -333 -1157 -823 -1510 -1533 -99 -198 -165 -412 -233 -752 -59 -291
-69 -413 -68 -855 0 -327 11 -620 23 -630 56 -43 914 -47 1061 -4 18 5 110 23
205 39 98 17 235 50 318 75 293 91 659 287 909 486 44 35 98 77 119 93 62 46
295 274 376 367 179 206 243 294 384 532 50 85 161 302 195 382 61 143 150
426 184 585 81 382 98 559 104 1100 l5 435 -27 28 c-31 31 -33 31 -440 17z"/>
</g>
</svg>
